<svg width="2em" height="2em" viewBox="0 0 300 300" fill="none" xmlns="http://www.w3.org/2000/svg">
<rect width="300" height="300" fill="#F7DF1E"/>
<path d="M107 146L176.5 148.5L177 176.5L104.5 237H32L7.5 275.5C41.3333 277.833 109.6 282.5 112 282.5C114.4 282.5 168 243.833 194.5 224.5L223.5 122.5L134.5 92L92 104.5L107 146Z" fill="black"/>
<path d="M284.5 196.5V140L238.5 150.5L207.5 237L250.5 250.5L207.5 255L184.5 289L280 282.5L290.5 244.5L247.5 206.5L284.5 196.5Z" fill="black"/>
<path d="M228.5 104.5L142.5 75L156.5 5L184.5 42L243.5 25.5L228.5 68.5L280 71L228.5 104.5Z" fill="black"/>
</svg>
